<svg width="40" height="37" viewBox="0 0 40 37" fill="none" xmlns="http://www.w3.org/2000/svg">
<path fill-rule="evenodd" clip-rule="evenodd" d="M34.5571 7.37742C35.7601 7.37742 36.7353 6.4022 36.7353 5.1992C36.7353 3.99621 35.7601 3.02099 34.5571 3.02099C33.3541 3.02099 32.3789 3.99621 32.3789 5.1992C32.3789 6.4022 33.3541 7.37742 34.5571 7.37742ZM34.5571 10.2817C37.3641 10.2817 39.6396 8.00619 39.6396 5.1992C39.6396 2.39221 37.3641 0.116699 34.5571 0.116699C31.7501 0.116699 29.4746 2.39221 29.4746 5.1992C29.4746 6.84388 30.2558 8.3061 31.4673 9.23504L27.6645 21.9113C27.5428 21.9026 27.42 21.8982 27.2961 21.8982C26.4062 21.8982 25.5697 22.1269 24.8422 22.5288L18.9556 17.2309C19.184 16.6529 19.3094 16.0231 19.3094 15.364C19.3094 12.557 17.0339 10.2815 14.2269 10.2815C11.4199 10.2815 9.14442 12.557 9.14442 15.364C9.14442 16.6062 9.59009 17.7444 10.3303 18.6273L5.63526 26.2567C5.595 26.2558 5.55463 26.2553 5.51414 26.2553C2.70715 26.2553 0.431641 28.5308 0.431641 31.3378C0.431641 34.1448 2.70715 36.4203 5.51414 36.4203C8.32113 36.4203 10.5966 34.1448 10.5966 31.3378C10.5966 29.6312 9.75556 28.1211 8.46531 27.1994L12.7542 20.2299C13.2204 20.3707 13.7148 20.4465 14.2269 20.4465C15.3175 20.4465 16.3279 20.103 17.1557 19.5183L22.8037 24.6015C22.427 25.3113 22.2136 26.1211 22.2136 26.9807C22.2136 29.7877 24.4891 32.0632 27.2961 32.0632C30.1031 32.0632 32.3786 29.7877 32.3786 26.9807C32.3786 25.3363 31.5977 23.8742 30.3864 22.9453L34.1894 10.2686C34.3108 10.2773 34.4334 10.2817 34.5571 10.2817ZM27.2961 29.1589C28.4991 29.1589 29.4743 28.1837 29.4743 26.9807C29.4743 25.7777 28.4991 24.8025 27.2961 24.8025C26.0931 24.8025 25.1179 25.7777 25.1179 26.9807C25.1179 28.1837 26.0931 29.1589 27.2961 29.1589ZM16.4051 15.364C16.4051 16.567 15.4299 17.5422 14.2269 17.5422C13.0239 17.5422 12.0487 16.567 12.0487 15.364C12.0487 14.161 13.0239 13.1858 14.2269 13.1858C15.4299 13.1858 16.4051 14.161 16.4051 15.364ZM5.51414 33.516C6.71714 33.516 7.69236 32.5408 7.69236 31.3378C7.69236 30.1348 6.71714 29.1596 5.51414 29.1596C4.31115 29.1596 3.33593 30.1348 3.33593 31.3378C3.33593 32.5408 4.31115 33.516 5.51414 33.516Z" fill="#072047"/>
</svg>
