<svg width="42" height="33" viewBox="0 0 42 33" fill="none" xmlns="http://www.w3.org/2000/svg">
<path fill-rule="evenodd" clip-rule="evenodd" d="M41.9995 8.34249C41.4625 3.64392 37.4725 -0.00561523 32.6302 -0.00561523C27.4216 -0.00561523 23.1993 4.21673 23.1993 9.42525C23.1993 9.91765 23.237 10.4012 23.3098 10.8733C21.9262 9.95803 20.2676 9.42511 18.4845 9.42511C13.648 9.42511 9.72727 13.3459 9.72727 18.1823C9.72727 19.8887 10.2153 21.4811 11.0594 22.8275H5.82727C3.12511 22.8275 0.93457 25.018 0.93457 27.7202C0.93457 30.4223 3.12511 32.6129 5.82727 32.6129H31.4833C30.5359 30.4112 30.0112 27.9849 30.0112 25.4359C30.0112 17.5708 35.0076 10.8727 41.9995 8.34249Z" fill="#072047"/>
</svg>
