<svg width="30" height="30" viewBox="0 0 30 30" fill="none" xmlns="http://www.w3.org/2000/svg">
<path d="M14.5073 5.25142C17.8491 5.25142 18.2449 5.26607 19.5591 5.32467C20.7805 5.37839 21.4401 5.58351 21.8798 5.75444C22.4612 5.9791 22.8814 6.25259 23.3162 6.68724C23.7559 7.12678 24.0246 7.5419 24.2494 8.12307C24.4204 8.56261 24.6256 9.2268 24.6793 10.4429C24.7379 11.7615 24.7526 12.1571 24.7526 15.4927C24.7526 18.8332 24.7379 19.2288 24.6793 20.5425C24.6256 21.7634 24.4204 22.4227 24.2494 22.8623C24.0246 23.4434 23.751 23.8635 23.3162 24.2981C22.8765 24.7376 22.4612 25.0063 21.8798 25.2309C21.4401 25.4018 20.7757 25.607 19.5591 25.6607C18.24 25.7193 17.8442 25.7339 14.5073 25.7339C11.1655 25.7339 10.7698 25.7193 9.45554 25.6607C8.23412 25.607 7.57456 25.4018 7.13484 25.2309C6.55345 25.0063 6.13328 24.7328 5.69846 24.2981C5.25875 23.8586 4.99003 23.4434 4.76529 22.8623C4.59429 22.4227 4.3891 21.7585 4.33535 20.5425C4.27672 19.2239 4.26207 18.8283 4.26207 15.4927C4.26207 12.1522 4.27672 11.7566 4.33535 10.4429C4.3891 9.22192 4.59429 8.56261 4.76529 8.12307C4.99003 7.5419 5.26363 7.1219 5.69846 6.68724C6.13817 6.2477 6.55345 5.9791 7.13484 5.75444C7.57456 5.58351 8.23901 5.37839 9.45554 5.32467C10.7698 5.26607 11.1655 5.25142 14.5073 5.25142ZM14.5073 3C11.1118 3 10.6867 3.01465 9.35294 3.07326C8.02404 3.13186 7.11042 3.34675 6.31894 3.65442C5.49326 3.97675 4.79461 4.40164 4.10084 5.10002C3.40219 5.79351 2.97714 6.49189 2.65468 7.31237C2.34688 8.10842 2.13191 9.0168 2.07329 10.3452C2.01466 11.6833 2 12.1082 2 15.5024C2 18.8967 2.01466 19.3215 2.07329 20.6548C2.13191 21.9832 2.34688 22.8965 2.65468 23.6876C2.97714 24.513 3.40219 25.2114 4.10084 25.9049C4.79461 26.5984 5.49326 27.0281 6.31405 27.3456C7.11042 27.6533 8.01915 27.8681 9.34806 27.9267C10.6818 27.9853 11.1069 28 14.5024 28C17.898 28 18.323 27.9853 19.6568 27.9267C20.9857 27.8681 21.8994 27.6533 22.6908 27.3456C23.5116 27.0281 24.2103 26.5984 24.904 25.9049C25.5978 25.2114 26.0278 24.513 26.3453 23.6925C26.6531 22.8965 26.8681 21.9881 26.9267 20.6597C26.9853 19.3264 27 18.9015 27 15.5073C27 12.1131 26.9853 11.6882 26.9267 10.355C26.8681 9.02657 26.6531 8.1133 26.3453 7.32213C26.0375 6.49189 25.6125 5.79351 24.9138 5.10002C24.2201 4.40652 23.5214 3.97675 22.7006 3.65931C21.9042 3.35163 20.9955 3.13675 19.6666 3.07814C18.3279 3.01465 17.9029 3 14.5073 3Z" fill="#072047"/>
<path d="M14.5073 9.08029C10.9603 9.08029 8.08267 11.9568 8.08267 15.5024C8.08267 19.0481 10.9603 21.9246 14.5073 21.9246C18.0543 21.9246 20.932 19.0481 20.932 15.5024C20.932 11.9568 18.0543 9.08029 14.5073 9.08029ZM14.5073 19.6683C12.2062 19.6683 10.3398 17.8027 10.3398 15.5024C10.3398 13.2022 12.2062 11.3366 14.5073 11.3366C16.8085 11.3366 18.6748 13.2022 18.6748 15.5024C18.6748 17.8027 16.8085 19.6683 14.5073 19.6683Z" fill="#072047"/>
<path d="M22.6859 8.82629C22.6859 9.65653 22.0117 10.3256 21.186 10.3256C20.3555 10.3256 19.6861 9.65165 19.6861 8.82629C19.6861 7.99605 20.3604 7.32697 21.186 7.32697C22.0117 7.32697 22.6859 8.00093 22.6859 8.82629Z" fill="#072047"/>
</svg>
