<svg width="30" height="30" viewBox="0 0 30 30" fill="none" xmlns="http://www.w3.org/2000/svg">
<path d="M10.5502 25C19.6045 25 24.5583 17.3046 24.5583 10.6332C24.5583 10.4169 24.5536 10.1957 24.5442 9.9794C25.5079 9.26466 26.3395 8.37935 27 7.36507C26.1025 7.7746 25.1496 8.04206 24.1739 8.15831C25.2013 7.52672 25.9705 6.53451 26.3391 5.36563C25.3726 5.95308 24.3156 6.36748 23.2134 6.59106C22.4708 5.78181 21.489 5.24599 20.4197 5.06644C19.3504 4.88689 18.2532 5.07362 17.2977 5.59775C16.3423 6.12188 15.5818 6.95422 15.1338 7.96609C14.6859 8.97796 14.5754 10.113 14.8195 11.1957C12.8625 11.095 10.9479 10.5736 9.19998 9.6653C7.45203 8.75702 5.90969 7.48213 4.67297 5.9233C4.0444 7.03477 3.85206 8.35001 4.13503 9.6017C4.418 10.8534 5.15506 11.9476 6.19641 12.662C5.41463 12.6365 4.64998 12.4207 3.96563 12.0322V12.0947C3.96492 13.2611 4.3581 14.3918 5.07831 15.2945C5.79852 16.1972 6.80132 16.8163 7.91625 17.0464C7.19206 17.2497 6.43198 17.2793 5.69484 17.133C6.00945 18.1361 6.62157 19.0135 7.44577 19.6426C8.26997 20.2718 9.26512 20.6213 10.2923 20.6425C8.54842 22.0474 6.39417 22.8095 4.17656 22.8058C3.78329 22.8052 3.3904 22.7805 3 22.7318C5.25286 24.2141 7.87353 25.0014 10.5502 25Z" fill="#072047"/>
</svg>
